<svg width="546.501" height="91.5" viewBox="0 0 546.501 91.5" xmlns="http://www.w3.org/2000/svg" style=""><g id="svgGroup" stroke-linecap="round" fill-rule="evenodd" font-size="9pt" stroke="#14C2CF" stroke-width="0.25mm" fill="#14C2CF" style="stroke:#14C2CF;stroke-width:1mm;fill:none"><path d="M 241 75.6 L 241 6.4 Q 241 4.367 245.826 2.419 A 31.855 31.855 0 0 1 246.65 2.1 A 34.065 34.065 0 0 1 257.188 0.033 A 39.288 39.288 0 0 1 258.8 0 A 27.628 27.628 0 0 1 261.868 0.155 Q 268 0.845 268 4.6 L 268 42 L 269.3 42 A 401.991 401.991 0 0 1 270.461 36.633 Q 274.388 19.1 276.4 19.1 A 31.484 31.484 0 0 1 281.088 19.48 Q 283.443 19.836 286.095 20.526 A 70.64 70.64 0 0 1 290.4 21.8 A 36.743 36.743 0 0 1 293.187 22.834 Q 298.6 25.119 298.6 27.8 A 5.31 5.31 0 0 1 298.384 29.154 Q 297.67 31.781 294.6 37 A 68.908 68.908 0 0 1 291.043 42.472 Q 288.719 45.682 286.3 48.1 A 407.421 407.421 0 0 1 289.652 52.158 Q 298.548 63.081 300.215 66.977 A 3.91 3.91 0 0 1 300.6 68.4 A 2.917 2.917 0 0 1 299.958 70.086 Q 298.183 72.543 291.5 75.7 A 101.996 101.996 0 0 1 287.777 77.376 Q 282.136 79.769 279.235 79.98 A 7.39 7.39 0 0 1 278.7 80 A 1.934 1.934 0 0 1 277.57 79.586 Q 276.405 78.746 275.162 76.203 A 25.769 25.769 0 0 1 274.9 75.65 A 42.414 42.414 0 0 1 273.686 72.684 Q 272.562 69.647 271.35 65.35 A 174.748 174.748 0 0 1 270.6 62.6 L 268 65.7 L 268 75.6 A 0.655 0.655 0 0 1 267.672 76.107 Q 266.644 76.858 262.4 77.35 A 99.262 99.262 0 0 1 252.97 77.978 A 111.891 111.891 0 0 1 250.7 78 A 106.2 106.2 0 0 1 248.237 77.974 Q 244.885 77.896 243.348 77.586 A 5.867 5.867 0 0 1 242.8 77.45 A 4.311 4.311 0 0 1 242.066 77.157 Q 241.7 76.966 241.459 76.722 A 1.539 1.539 0 0 1 241 75.6 Z M 535.92 75.345 A 17.386 17.386 0 0 0 538.5 73.8 Q 541.5 71.6 543.4 68.6 Q 546.5 63.7 546.5 57.7 Q 546.5 52 544.3 47.7 A 21.744 21.744 0 0 0 542.475 44.722 A 16.311 16.311 0 0 0 538.8 41.05 Q 535.5 38.7 531.65 36.95 A 61.333 61.333 0 0 0 531.156 36.729 Q 529.437 35.965 527.839 35.385 A 37.332 37.332 0 0 0 524.55 34.35 Q 521.3 33.5 519.1 32.45 A 6.713 6.713 0 0 1 518.446 32.095 Q 517.948 31.785 517.611 31.432 A 2.373 2.373 0 0 1 516.9 29.75 Q 516.9 28.642 517.6 27.917 A 3.223 3.223 0 0 1 518.45 27.3 Q 520 26.5 524.35 26.5 Q 527.349 26.5 531.418 27.879 A 47.932 47.932 0 0 1 535.3 29.4 A 61.598 61.598 0 0 0 535.903 29.644 Q 537.195 30.156 537.687 30.269 A 1.033 1.033 0 0 0 537.9 30.3 A 1.927 1.927 0 0 0 538.642 30.146 Q 540.593 29.338 542.65 24.3 Q 543.799 21.488 544.409 18.851 A 25.498 25.498 0 0 0 545.1 13.1 Q 545.1 11.917 543.263 10.702 A 12.904 12.904 0 0 0 542.15 10.05 Q 539.938 8.888 535.335 7.894 A 83.745 83.745 0 0 0 532 7.25 Q 527.725 6.508 522.498 6.207 A 132.234 132.234 0 0 0 514.9 6 A 56.838 56.838 0 0 0 511.269 6.112 Q 488.4 7.578 488.4 28.2 Q 488.4 33.4 490.6 37.45 A 20.537 20.537 0 0 0 492.162 39.909 A 15.905 15.905 0 0 0 496.1 43.7 Q 499.4 45.9 503.25 47.7 A 66.91 66.91 0 0 0 503.31 47.728 Q 507.126 49.508 510.4 50.45 Q 512.308 51 513.848 51.649 A 19.471 19.471 0 0 1 515.9 52.65 A 7.177 7.177 0 0 1 516.823 53.265 Q 517.275 53.625 517.567 54.01 A 2.425 2.425 0 0 1 518.1 55.5 A 3.858 3.858 0 0 1 518.074 55.959 A 2.733 2.733 0 0 1 516.9 57.95 A 2.205 2.205 0 0 1 516.666 58.094 Q 515.663 58.631 513.316 58.76 A 29.629 29.629 0 0 1 511.7 58.8 A 15.956 15.956 0 0 1 509.846 58.681 Q 507.245 58.375 503.506 57.282 A 87.097 87.097 0 0 1 499.8 56.1 A 891.612 891.612 0 0 0 497.907 55.455 Q 492.717 53.695 491.717 53.443 A 1.187 1.187 0 0 0 491.5 53.4 A 1.659 1.659 0 0 0 490.713 53.604 Q 489.007 54.51 487.7 59.45 A 51.744 51.744 0 0 0 486.927 62.818 A 43.419 43.419 0 0 0 486.1 71.1 Q 486.1 72.7 489.4 74.4 Q 492.7 76.1 500.3 77.5 Q 507.9 78.9 516.35 78.9 A 82.173 82.173 0 0 0 521.445 78.752 Q 523.834 78.603 525.905 78.305 A 35.684 35.684 0 0 0 530.15 77.45 A 39.278 39.278 0 0 0 532.9 76.601 Q 534.555 76.019 535.92 75.345 Z M 30.3 78 L 8.4 78 A 56.992 56.992 0 0 1 6.371 77.967 Q 3.028 77.847 1.7 77.3 A 3.727 3.727 0 0 1 0.917 76.872 Q 0 76.202 0 75.1 L 0 10.8 A 2.43 2.43 0 0 1 1.588 8.814 Q 6.101 6.365 23.448 6.048 A 298.561 298.561 0 0 1 28.9 6 A 135.645 135.645 0 0 1 36.447 6.194 Q 43.488 6.588 47.948 7.785 A 19.985 19.985 0 0 1 51.8 9.2 Q 56.588 11.669 58.801 15.145 A 11.986 11.986 0 0 1 60 17.6 Q 61 20.6 61 24.6 Q 61 32.003 58.613 35.893 A 10.441 10.441 0 0 1 58.35 36.3 Q 56.742 38.667 54.968 39.782 A 6.323 6.323 0 0 1 52.6 40.7 Q 57.3 41.7 60.4 45.3 Q 63.5 48.9 63.5 57.5 Q 63.5 65.028 60.044 69.609 A 14.619 14.619 0 0 1 57.4 72.3 Q 52.1 76.5 41.2 77.6 A 94.98 94.98 0 0 1 37.511 77.844 Q 34.238 78 30.3 78 Z M 334.2 55.4 L 330.9 55.4 A 9.84 9.84 0 0 0 331.197 57.933 Q 332.256 61.9 337.1 61.9 Q 340.7 61.9 346.5 59.45 A 564.007 564.007 0 0 1 347.864 58.876 Q 351.889 57.188 352.505 57.019 A 0.434 0.434 0 0 1 352.6 57 A 1.945 1.945 0 0 1 353.66 57.379 Q 354.977 58.256 356.721 61.159 A 41.519 41.519 0 0 1 357.6 62.7 Q 360.66 68.326 360.7 71.03 A 4.804 4.804 0 0 1 360.7 71.1 A 3.892 3.892 0 0 1 359.354 73.98 Q 357.419 75.821 352.7 77 A 65.808 65.808 0 0 1 340.052 78.924 A 59.377 59.377 0 0 1 337.05 79 Q 329.4 79 324.25 77.8 A 43.677 43.677 0 0 1 320.655 76.809 Q 318.921 76.245 317.478 75.582 A 21.074 21.074 0 0 1 315.85 74.75 Q 312.6 72.9 310.15 70.2 Q 308.109 67.951 306.936 65.876 A 15.793 15.793 0 0 1 306.5 65.05 A 24.102 24.102 0 0 1 305.1 61.466 A 29.072 29.072 0 0 1 304.6 59.6 Q 303.6 55.2 303.6 50.5 A 54.338 54.338 0 0 1 304.269 41.636 Q 306.121 30.469 313.1 25.4 Q 317.8 21.9 323.6 20.5 A 46.39 46.39 0 0 1 329.077 19.543 Q 331.912 19.211 335.12 19.128 A 84.267 84.267 0 0 1 337.3 19.1 A 53.849 53.849 0 0 1 346.218 19.772 Q 362.6 22.538 362.6 36.7 A 15.713 15.713 0 0 1 353.877 51.684 Q 346.861 55.4 334.2 55.4 Z M 373.8 54.2 L 373.8 38.6 L 368.8 38.6 A 1.175 1.175 0 0 1 368.018 38.278 Q 367.583 37.898 367.205 37.07 A 8.946 8.946 0 0 1 366.9 36.3 Q 366.1 34 366.1 30 A 21.775 21.775 0 0 1 366.375 26.459 A 16.15 16.15 0 0 1 367.35 22.95 A 11.637 11.637 0 0 1 367.367 22.909 Q 368.468 20.253 370.145 19.942 A 2.49 2.49 0 0 1 370.6 19.9 L 373.8 19.9 L 373.8 7.8 A 3.335 3.335 0 0 1 374.818 5.459 Q 375.891 4.331 378.097 3.428 A 22.111 22.111 0 0 1 379.85 2.8 Q 385.9 0.9 391.7 0.9 Q 397.09 0.9 399.287 2.479 A 3.418 3.418 0 0 1 400.8 5.4 L 400.8 19.9 L 408.2 19.9 Q 410.542 19.9 410.774 25.982 A 37.125 37.125 0 0 1 410.8 27.4 A 34.608 34.608 0 0 1 410.664 30.562 Q 410.518 32.149 410.216 33.497 A 15.762 15.762 0 0 1 409.65 35.45 A 10.144 10.144 0 0 1 409.126 36.658 Q 408.113 38.6 406.7 38.6 L 400.8 38.6 L 400.8 56.9 A 4.91 4.91 0 0 0 401.046 58.501 Q 401.553 59.977 403.1 60.75 Q 404.739 61.57 406.098 61.805 A 6.164 6.164 0 0 0 407.15 61.9 A 2.687 2.687 0 0 1 407.995 62.024 Q 408.818 62.296 409.165 63.167 A 3.068 3.068 0 0 1 409.3 63.6 Q 409.633 65.014 409.689 67.603 A 50.785 50.785 0 0 1 409.7 68.7 Q 409.7 74.841 408.188 76.781 A 2.827 2.827 0 0 1 407.9 77.1 Q 406.228 78.68 400.586 78.792 A 44.592 44.592 0 0 1 399.7 78.8 Q 395.094 78.8 391.627 78.36 A 35.002 35.002 0 0 1 389.1 77.95 A 22.527 22.527 0 0 1 381.457 74.831 A 25.664 25.664 0 0 1 381.1 74.6 A 13.778 13.778 0 0 1 376.34 68.798 Q 374.098 63.981 373.835 56.29 A 61.29 61.29 0 0 1 373.8 54.2 Z M 451.7 65.6 L 451.7 13.5 A 2.146 2.146 0 0 1 452.248 12.147 Q 453.322 10.824 456.505 9.52 A 32.61 32.61 0 0 1 457.45 9.15 A 34.58 34.58 0 0 1 469.295 7.002 A 39.092 39.092 0 0 1 469.7 7 A 31.496 31.496 0 0 1 472.938 7.152 Q 476.205 7.492 477.869 8.592 A 3.549 3.549 0 0 1 479.6 11.7 L 479.6 67 A 130.286 130.286 0 0 1 479.542 71.039 Q 479.421 74.907 479.054 77.62 A 35.914 35.914 0 0 1 479 78 A 20.989 20.989 0 0 1 477.187 84.058 A 19.47 19.47 0 0 1 476.45 85.45 Q 474.5 88.8 470.75 90.15 A 22.412 22.412 0 0 1 466.012 91.269 A 29.427 29.427 0 0 1 462.25 91.5 Q 457.678 91.5 455.468 91.361 A 32.052 32.052 0 0 1 455.3 91.35 A 22.873 22.873 0 0 1 452.453 90.968 A 28.253 28.253 0 0 1 450.65 90.55 Q 448.2 89.9 446.8 88.8 A 8.433 8.433 0 0 1 444.213 84.814 Q 443.763 83.404 443.643 81.685 A 18.532 18.532 0 0 1 443.6 80.4 Q 443.6 72.2 447.8 72.2 Q 449.096 72.2 449.796 71.803 A 2.026 2.026 0 0 0 449.8 71.8 A 2.344 2.344 0 0 0 450.817 70.781 Q 451.7 69.213 451.7 65.6 Z M 129.053 78.686 A 72.714 72.714 0 0 0 134.8 78.9 A 54.158 54.158 0 0 0 135.505 78.896 Q 140.762 78.827 145.228 77.733 A 29.15 29.15 0 0 0 157.9 71.25 A 22.91 22.91 0 0 0 161.901 66.594 Q 164.535 62.54 165.66 57.163 A 42.803 42.803 0 0 0 166.5 48.4 Q 166.5 44.357 166.006 40.91 A 35.022 35.022 0 0 0 164.8 35.45 A 36.601 36.601 0 0 0 164.087 33.377 Q 163.37 31.486 162.517 29.934 A 17.984 17.984 0 0 0 160.45 26.9 Q 157.8 23.8 153.45 22 Q 149.1 20.2 144.9 19.65 A 53.416 53.416 0 0 0 142.838 19.423 Q 141.042 19.258 138.986 19.178 A 107.133 107.133 0 0 0 134.8 19.1 Q 121 19.1 112.3 25.5 A 20.389 20.389 0 0 0 106.75 31.75 Q 104.661 35.365 103.736 40.12 A 43.414 43.414 0 0 0 103 48.4 A 55.628 55.628 0 0 0 103.599 56.884 Q 105.334 68.093 112.1 73 Q 116.5 76.3 121.9 77.6 Q 125.106 78.372 129.053 78.686 Z M 197.553 78.686 A 72.714 72.714 0 0 0 203.3 78.9 A 54.158 54.158 0 0 0 204.005 78.896 Q 209.262 78.827 213.728 77.733 A 29.15 29.15 0 0 0 226.4 71.25 A 22.91 22.91 0 0 0 230.401 66.594 Q 233.035 62.54 234.16 57.163 A 42.803 42.803 0 0 0 235 48.4 Q 235 44.357 234.506 40.91 A 35.022 35.022 0 0 0 233.3 35.45 A 36.601 36.601 0 0 0 232.587 33.377 Q 231.87 31.486 231.017 29.934 A 17.984 17.984 0 0 0 228.95 26.9 Q 226.3 23.8 221.95 22 Q 217.6 20.2 213.4 19.65 A 53.416 53.416 0 0 0 211.338 19.423 Q 209.542 19.258 207.486 19.178 A 107.133 107.133 0 0 0 203.3 19.1 Q 189.5 19.1 180.8 25.5 A 20.389 20.389 0 0 0 175.25 31.75 Q 173.161 35.365 172.236 40.12 A 43.414 43.414 0 0 0 171.5 48.4 A 55.628 55.628 0 0 0 172.099 56.884 Q 173.834 68.093 180.6 73 Q 185 76.3 190.4 77.6 Q 193.606 78.372 197.553 78.686 Z M 97 4.6 L 97 75.6 A 0.654 0.654 0 0 1 96.666 76.107 Q 95.62 76.858 91.3 77.35 Q 85.6 78 79.55 78 Q 74.296 78 72.285 77.586 A 5.523 5.523 0 0 1 71.75 77.45 Q 70.859 77.17 70.421 76.695 A 1.56 1.56 0 0 1 70 75.6 L 70 6.4 Q 70 4.367 74.826 2.419 A 31.855 31.855 0 0 1 75.65 2.1 A 34.065 34.065 0 0 1 86.188 0.033 A 39.288 39.288 0 0 1 87.8 0 A 27.628 27.628 0 0 1 90.868 0.155 Q 97 0.845 97 4.6 Z M 132.471 63.336 A 1.658 1.658 0 0 0 132.75 63.7 A 2.535 2.535 0 0 0 133.975 64.323 A 3.694 3.694 0 0 0 134.75 64.4 Q 136 64.4 136.75 63.7 A 1.801 1.801 0 0 0 137.085 63.234 Q 137.544 62.377 137.964 60.364 A 36.784 36.784 0 0 0 138.15 59.4 Q 138.8 55.8 138.8 50.35 Q 138.8 45.858 138.63 43.065 A 47.057 47.057 0 0 0 138.55 41.95 A 68.879 68.879 0 0 0 138.419 40.56 Q 138.213 38.6 137.95 37.4 A 11.133 11.133 0 0 0 137.682 36.388 Q 137.529 35.913 137.347 35.522 A 4.764 4.764 0 0 0 137 34.9 A 3.837 3.837 0 0 0 136.435 34.243 Q 135.729 33.6 134.85 33.6 A 3.406 3.406 0 0 0 133.892 33.729 A 2.667 2.667 0 0 0 132.8 34.35 Q 132.108 34.999 131.49 37.821 A 36.598 36.598 0 0 0 131.3 38.75 A 30.564 30.564 0 0 0 130.939 41.258 Q 130.648 43.994 130.607 47.819 A 119.874 119.874 0 0 0 130.6 49.1 Q 130.6 55.8 131.3 59.4 Q 131.869 62.326 132.471 63.336 Z M 200.971 63.336 A 1.658 1.658 0 0 0 201.25 63.7 A 2.535 2.535 0 0 0 202.475 64.323 A 3.694 3.694 0 0 0 203.25 64.4 Q 204.5 64.4 205.25 63.7 A 1.801 1.801 0 0 0 205.585 63.234 Q 206.044 62.377 206.464 60.364 A 36.784 36.784 0 0 0 206.65 59.4 Q 207.3 55.8 207.3 50.35 Q 207.3 45.858 207.13 43.065 A 47.057 47.057 0 0 0 207.05 41.95 A 68.879 68.879 0 0 0 206.919 40.56 Q 206.713 38.6 206.45 37.4 A 11.133 11.133 0 0 0 206.182 36.388 Q 206.029 35.913 205.847 35.522 A 4.764 4.764 0 0 0 205.5 34.9 A 3.837 3.837 0 0 0 204.935 34.243 Q 204.229 33.6 203.35 33.6 A 3.406 3.406 0 0 0 202.392 33.729 A 2.667 2.667 0 0 0 201.3 34.35 Q 200.608 34.999 199.99 37.821 A 36.598 36.598 0 0 0 199.8 38.75 A 30.564 30.564 0 0 0 199.439 41.258 Q 199.148 43.994 199.107 47.819 A 119.874 119.874 0 0 0 199.1 49.1 Q 199.1 55.8 199.8 59.4 Q 200.369 62.326 200.971 63.336 Z M 438.421 71.397 A 20.137 20.137 0 0 0 438.6 68.6 A 23.753 23.753 0 0 0 438.582 67.67 Q 438.469 64.765 437.623 62.931 A 5.409 5.409 0 0 0 435.9 60.75 A 8.802 8.802 0 0 0 433.534 59.566 Q 432.337 59.163 430.867 58.972 A 22.323 22.323 0 0 0 428 58.8 Q 424.892 58.8 422.66 59.497 A 9.228 9.228 0 0 0 420.05 60.75 A 4.834 4.834 0 0 0 419.274 61.438 Q 417.874 62.973 417.467 65.936 A 19.662 19.662 0 0 0 417.3 68.6 A 24.646 24.646 0 0 0 417.306 69.156 Q 417.377 72.281 418.252 74.302 A 6.199 6.199 0 0 0 420 76.7 A 8.375 8.375 0 0 0 422.264 77.995 Q 423.481 78.47 424.988 78.696 A 20.038 20.038 0 0 0 427.95 78.9 A 20.815 20.815 0 0 0 430.443 78.76 Q 431.94 78.579 433.168 78.165 A 8.646 8.646 0 0 0 435.9 76.7 A 5.403 5.403 0 0 0 436.425 76.211 Q 437.975 74.561 438.421 71.397 Z M 27.9 34.4 L 30.4 34.4 A 5.357 5.357 0 0 0 32.75 33.921 Q 35.013 32.829 35.414 29.255 A 14.874 14.874 0 0 0 35.5 27.6 A 13.74 13.74 0 0 0 35.393 25.826 Q 35.12 23.736 34.15 22.55 A 5.482 5.482 0 0 0 33.238 21.654 Q 32.249 20.9 31.1 20.9 L 27.9 20.9 L 27.9 34.4 Z M 27.9 49.6 L 27.9 63.1 L 30.4 63.1 A 5.357 5.357 0 0 0 32.75 62.621 Q 35.013 61.529 35.414 57.955 A 14.874 14.874 0 0 0 35.5 56.3 A 13.74 13.74 0 0 0 35.393 54.526 Q 35.12 52.436 34.15 51.25 A 5.482 5.482 0 0 0 33.238 50.354 Q 32.249 49.6 31.1 49.6 L 27.9 49.6 Z M 330.7 40.8 L 330.7 47.4 Q 333.6 47.4 335.45 45.1 A 8.343 8.343 0 0 0 337.24 40.654 A 10.887 10.887 0 0 0 337.3 39.5 A 17.387 17.387 0 0 0 337.193 37.48 Q 336.725 33.5 334.2 33.5 Q 330.7 33.5 330.7 40.8 Z" vector-effect="non-scaling-stroke" class="FJOfYbho_0"></path></g><style data-made-with="vivus-instant">.FJOfYbho_0{stroke-dasharray:2527 2529;stroke-dashoffset:2528;animation:FJOfYbho_draw 5000ms ease-in-out 0ms forwards;}@keyframes FJOfYbho_draw{100%{stroke-dashoffset:0;}}@keyframes FJOfYbho_fade{0%{stroke-opacity:1;}94.44444444444444%{stroke-opacity:1;}100%{stroke-opacity:0;}}</style></svg>
